<svg width="375" height="348" viewBox="0 0 375 348" fill="none" xmlns="http://www.w3.org/2000/svg">
<rect width="375" height="348" rx="20" fill="white"/>
<rect width="153" height="23" transform="translate(111 15.5)" fill="white"/>
<path d="M124.75 19.5L117.242 26.2567C116.801 26.6539 116.801 27.3461 117.242 27.7433L124.75 34.5" stroke="#A5A9BD" stroke-width="2" stroke-linecap="round"/>
<path d="M155.919 32.5V31.123L159.669 27.5049C160.739 26.4355 161.295 25.8057 161.295 24.9121C161.295 23.9233 160.512 23.3008 159.479 23.3008C158.388 23.3008 157.685 23.9819 157.692 25.0586H155.875C155.868 23.0518 157.377 21.748 159.494 21.748C161.662 21.748 163.119 23.0444 163.126 24.8242C163.119 26.0181 162.548 26.9849 160.46 28.9551L158.571 30.8301V30.9033H163.288V32.5H155.919ZM168.869 32.6465C166.312 32.6465 164.789 30.6689 164.796 27.1973C164.789 23.7402 166.327 21.748 168.869 21.748C171.41 21.748 172.941 23.7402 172.941 27.1973C172.941 30.6763 171.417 32.6465 168.869 32.6465ZM166.715 27.1973C166.715 29.7461 167.536 31.0425 168.869 31.0498C170.194 31.0425 171.022 29.7461 171.022 27.1973C171.015 24.6704 170.194 23.3374 168.869 23.3301C167.543 23.3374 166.723 24.6704 166.715 27.1973ZM174.538 32.5V31.123L178.288 27.5049C179.357 26.4355 179.914 25.8057 179.914 24.9121C179.914 23.9233 179.13 23.3008 178.097 23.3008C177.006 23.3008 176.303 23.9819 176.31 25.0586H174.494C174.486 23.0518 175.995 21.748 178.112 21.748C180.28 21.748 181.737 23.0444 181.745 24.8242C181.737 26.0181 181.166 26.9849 179.079 28.9551L177.189 30.8301V30.9033H181.906V32.5H174.538ZM187.428 32.6465C185.165 32.6465 183.546 31.416 183.502 29.6289H185.421C185.473 30.4785 186.322 31.0425 187.428 31.0352C188.593 31.0425 189.435 30.3979 189.435 29.4531C189.435 28.501 188.615 27.8198 187.238 27.8125H186.286V26.3477H187.238C188.366 26.3477 189.149 25.7178 189.142 24.7949C189.149 23.9014 188.476 23.3008 187.443 23.3008C186.447 23.3008 185.59 23.8574 185.553 24.751H183.722C183.766 22.9712 185.385 21.748 187.458 21.748C189.611 21.748 191.002 23.0664 190.988 24.6924C191.002 25.8789 190.211 26.7358 189.054 26.9775V27.0654C190.548 27.2632 191.398 28.2227 191.383 29.5557C191.398 31.3501 189.721 32.6465 187.428 32.6465ZM193.903 32.6172C193.273 32.6172 192.753 32.1045 192.76 31.4746C192.753 30.8594 193.273 30.354 193.903 30.3467C194.511 30.354 195.031 30.8594 195.031 31.4746C195.031 32.1045 194.511 32.6172 193.903 32.6172ZM203.952 32.6465C201.396 32.6465 199.872 30.6689 199.879 27.1973C199.872 23.7402 201.41 21.748 203.952 21.748C206.493 21.748 208.024 23.7402 208.024 27.1973C208.024 30.6763 206.5 32.6465 203.952 32.6465ZM201.798 27.1973C201.798 29.7461 202.619 31.0425 203.952 31.0498C205.277 31.0425 206.105 29.7461 206.105 27.1973C206.098 24.6704 205.277 23.3374 203.952 23.3301C202.626 23.3374 201.806 24.6704 201.798 27.1973ZM209.723 32.5L214.323 23.5645V23.4912H208.991V21.8945H216.3V23.5205L211.701 32.5H209.723Z" fill="#141414"/>
<path d="M246.833 34.5L254.341 27.7433C254.782 27.3461 254.782 26.6539 254.341 26.2567L246.833 19.5" stroke="#A5A9BD" stroke-width="2" stroke-linecap="round"/>
<rect width="327" height="20" transform="translate(24 62.5)" fill="white"/>
<path d="M44.5386 67.6611C46.2271 67.6738 47.4585 68.6895 47.4585 70.1621C47.4585 71.6348 46.2271 72.6504 44.5386 72.6504C42.8247 72.6504 41.606 71.6348 41.606 70.1621C41.606 68.6895 42.8247 67.6738 44.5386 67.6611ZM44.5386 68.499C43.4087 68.499 42.5708 69.1846 42.5835 70.1621C42.5708 71.1523 43.4087 71.8379 44.5386 71.8379C45.6558 71.8379 46.4937 71.1523 46.4937 70.1621C46.4937 69.1846 45.6558 68.499 44.5386 68.499ZM50.6577 67.2422V73.0439H49.6675V67.2422H50.6577ZM50.6577 73.5898V76.3066H44.3228V77.5762H51.064V78.376H43.3452V75.5576H49.6675V74.3896H43.3198V73.5898H50.6577Z" fill="#595F72"/>
<path d="M97.645 67.2549V73.9072H96.6421V73.2852H94.3569V72.625H96.6421V67.2549H97.645ZM88.3013 71.5078C90.4849 71.5205 93.2778 71.4951 95.7153 71.2285L95.7788 71.876C94.6743 72.0347 93.5254 72.1299 92.4019 72.1807V73.9453H91.4243V72.2188C90.3579 72.2568 89.3359 72.2632 88.4155 72.2568L88.3013 71.5078ZM97.645 74.3135V76.6494H91.0562V77.665H98.0132V78.4014H90.0786V75.9512H96.6548V75.0371H90.0278V74.3135H97.645ZM91.9829 67.4707C93.6587 67.4707 94.7759 68.1309 94.7886 69.1719C94.7759 70.2256 93.6587 70.8604 91.9829 70.8604C90.2817 70.8604 89.1772 70.2256 89.1772 69.1719C89.1772 68.1309 90.2817 67.4707 91.9829 67.4707ZM91.9829 68.1689C90.8403 68.1689 90.104 68.5625 90.1167 69.1719C90.104 69.7686 90.8403 70.1748 91.9829 70.1748C93.1128 70.1748 93.8491 69.7686 93.8491 69.1719C93.8491 68.5625 93.1128 68.1689 91.9829 68.1689Z" fill="#595F72"/>
<path d="M144.099 67.2422V72.0537H145.902V72.8916H144.099V78.5283H143.096V67.2422H144.099ZM135.2 75.5195C136.12 75.5195 137.193 75.5195 138.31 75.4814V74.2246C136.996 74.0786 136.139 73.3105 136.152 72.1934C136.139 70.9238 137.218 70.0986 138.818 70.0986C140.392 70.0986 141.484 70.9238 141.497 72.1934C141.484 73.3105 140.614 74.0786 139.313 74.2373V75.4434C140.367 75.3926 141.427 75.3101 142.411 75.1641L142.474 75.9258C140.011 76.3447 137.345 76.3701 135.365 76.3701L135.2 75.5195ZM142.208 68.626V69.4385H135.403V68.626H138.31V67.2676H139.313V68.626H142.208ZM138.818 70.873C137.777 70.873 137.079 71.4062 137.079 72.1934C137.079 72.9805 137.777 73.4883 138.818 73.4756C139.846 73.4883 140.544 72.9805 140.544 72.1934C140.544 71.4062 139.846 70.873 138.818 70.873Z" fill="#595F72"/>
<path d="M188.001 68.2959C188.001 69.8828 190.083 71.2666 192.115 71.5459L191.708 72.3584C189.957 72.0664 188.224 71.0952 187.494 69.7051C186.77 71.1016 185.031 72.0664 183.279 72.3584L182.873 71.5459C184.904 71.2666 186.973 69.9082 186.973 68.2959V67.6484H188.001V68.2959ZM192.623 73.6025V74.4404H187.951V78.5283H186.973V74.4404H182.339V73.6025H192.623Z" fill="#595F72"/>
<path d="M238.315 67.7246V71.5332H234.976V72.9805H239.623V73.793H229.339V72.9805H233.986V71.5332H230.672V67.7246H238.315ZM231.65 68.5244V70.7334H237.325V68.5244H231.65ZM238.353 74.9736V78.5283H237.35V75.7734H230.482V74.9736H238.353Z" fill="#595F72"/>
<path d="M285.315 67.8516V68.6895C285.315 69.5654 285.315 70.5938 285.023 72.0029H286.673V72.8281H276.339V72.0029H284.02C284.325 70.5874 284.325 69.5654 284.325 68.6895V68.6768H277.647V67.8516H285.315ZM285.366 74.3896V78.376H277.609V74.3896H285.366ZM278.599 75.1768V77.5635H284.375V75.1768H278.599Z" fill="#595F72"/>
<path d="M332.48 73.1201V73.9326H328.976V76.2939H333.673V77.1191H323.339V76.2939H327.986V73.9326H324.672V68.1689H332.353V68.9941H325.688V70.6064H332.112V71.4189H325.688V73.1201H332.48Z" fill="#595F72"/>
<rect width="327" height="250" transform="translate(24 82.5)" fill="white"/>
<path d="M329.958 94.8945V105.5H328.625V96.2715H328.566L325.988 97.9854V96.6523L328.625 94.8945H329.958Z" fill="#C4C5D4"/>
<path d="M43.0942 148.5L43.0796 147.533L46.6978 143.725C47.9502 142.392 48.5508 141.674 48.5581 140.692C48.5508 139.601 47.6426 138.898 46.4487 138.891C45.1816 138.898 44.3906 139.696 44.3833 140.883H43.1382C43.1235 139.008 44.5737 137.748 46.4927 137.748C48.4189 137.748 49.7812 139.044 49.7886 140.692C49.7812 141.879 49.2319 142.802 47.3569 144.735L44.9253 147.24V147.328H49.979V148.5H43.0942Z" fill="#C4C5D4"/>
<path d="M93.5293 148.646C91.4199 148.646 89.9038 147.519 89.8379 145.834H91.1709C91.2441 146.845 92.2476 147.475 93.5146 147.475C94.9136 147.475 95.9243 146.72 95.9316 145.614C95.9243 144.457 95.0015 143.644 93.3535 143.637H92.4893V142.479H93.3535C94.6426 142.479 95.5435 141.754 95.5361 140.663C95.5435 139.601 94.7671 138.898 93.5586 138.891C92.4233 138.898 91.3906 139.521 91.332 140.561H90.0576C90.1235 138.876 91.6909 137.748 93.5732 137.748C95.5947 137.748 96.8252 139.074 96.8105 140.59C96.8252 141.798 96.1221 142.677 95.0088 142.992V143.065C96.3931 143.278 97.228 144.267 97.2207 145.614C97.228 147.357 95.646 148.646 93.5293 148.646Z" fill="#C4C5D4"/>
<rect x="123" y="125.5" width="35" height="35" rx="17.5" fill="#8457F1"/>
<path d="M136.552 146.332V145.248L141.328 137.895H142.954V145.175H144.433V146.332H142.954V148.5H141.694V146.332H136.552ZM137.973 145.175H141.694V139.564H141.562L137.973 145.087V145.175Z" fill="white"/>
<rect x="170" y="125.5" width="35" height="35" rx="17.5" fill="#E8EBF0"/>
<path d="M187.478 148.646C185.566 148.646 184.116 147.467 184.036 145.834H185.31C185.405 146.779 186.328 147.482 187.478 147.489C188.855 147.482 189.851 146.479 189.851 145.146C189.851 143.769 188.818 142.75 187.39 142.743C186.497 142.729 185.801 143.007 185.413 143.695H184.138L184.885 137.895H190.627V139.066H185.984L185.588 142.172H185.691C186.167 141.806 186.877 141.557 187.625 141.557C189.646 141.557 191.133 143.051 191.14 145.116C191.133 147.167 189.595 148.646 187.478 148.646Z" fill="#141414"/>
<rect x="217" y="125.5" width="35" height="35" rx="17.5" fill="white"/>
<path d="M234.588 148.646C232.75 148.625 230.721 147.533 230.721 143.607C230.721 139.85 232.259 137.748 234.749 137.748C236.617 137.748 237.92 138.898 238.191 140.561H236.888C236.646 139.623 235.928 138.92 234.749 138.92C233.006 138.92 231.958 140.407 231.966 142.963H232.098C232.706 142.077 233.68 141.557 234.822 141.557C236.705 141.557 238.279 143.021 238.279 145.072C238.279 147.072 236.822 148.668 234.588 148.646ZM232.142 145.102C232.149 146.347 233.167 147.482 234.588 147.489C235.958 147.482 236.998 146.405 237.005 145.087C236.998 143.783 236.001 142.721 234.617 142.714C233.226 142.721 232.156 143.849 232.142 145.102Z" fill="#1A1E27"/>
<path d="M278.695 148.5L283.558 139.14V139.066H277.948V137.895H284.92V139.125L280.072 148.5H278.695Z" fill="#C4C5D4"/>
<rect x="311" y="125.5" width="35" height="35" rx="17.5" fill="white"/>
<path d="M328.493 148.646C326.259 148.646 324.721 147.409 324.728 145.688C324.721 144.318 325.673 143.183 326.881 142.992V142.934C325.827 142.692 325.131 141.718 325.138 140.561C325.131 138.942 326.552 137.748 328.493 137.748C330.426 137.748 331.847 138.942 331.862 140.561C331.847 141.718 331.144 142.692 330.104 142.934V142.992C331.305 143.183 332.257 144.318 332.272 145.688C332.257 147.409 330.705 148.646 328.493 148.646ZM326.046 145.614C326.024 146.728 326.969 147.482 328.493 147.489C330.009 147.482 330.954 146.728 330.954 145.614C330.954 144.442 329.921 143.578 328.493 143.578C327.072 143.578 326.024 144.442 326.046 145.614ZM326.413 140.663C326.42 141.732 327.277 142.458 328.493 142.465C329.701 142.458 330.573 141.732 330.573 140.663C330.573 139.601 329.73 138.883 328.493 138.891C327.233 138.883 326.42 139.601 326.413 140.663Z" fill="#C4C5D4"/>
<path d="M46.4268 180.748C48.2505 180.77 50.2793 181.869 50.2793 185.772C50.2793 189.544 48.7339 191.646 46.251 191.646C44.3833 191.646 43.0723 190.504 42.8086 188.819H44.1123C44.3467 189.771 45.0718 190.475 46.251 190.475C47.9795 190.475 49.0342 188.98 49.0488 186.402H48.9023C48.2944 187.281 47.3203 187.809 46.1924 187.809C44.2954 187.809 42.7207 186.351 42.7207 184.308C42.7207 182.33 44.1709 180.726 46.4268 180.748ZM44.0098 184.293C44.0024 185.604 44.9985 186.651 46.3828 186.651C47.7671 186.651 48.8438 185.509 48.8438 184.264C48.8438 183.048 47.8257 181.905 46.4268 181.905C45.0425 181.905 43.9951 182.982 44.0098 184.293Z" fill="#C4C5D4"/>
<path d="M90.4897 180.895V191.5H89.1567V182.271H89.0981L86.52 183.985V182.652L89.1567 180.895H90.4897ZM96.7886 191.646C94.4375 191.646 93.0752 189.669 93.0825 186.197C93.0752 182.755 94.4521 180.748 96.7886 180.748C99.1177 180.748 100.495 182.755 100.495 186.197C100.495 189.669 99.1396 191.646 96.7886 191.646ZM94.3569 186.197C94.3643 188.944 95.2505 190.475 96.7886 190.475C98.3193 190.475 99.2129 188.944 99.2056 186.197C99.2129 183.451 98.312 181.898 96.7886 181.891C95.2651 181.898 94.3643 183.451 94.3569 186.197Z" fill="#1A1E27"/>
<path d="M138.669 180.895V191.5H137.336V182.271H137.277L134.699 183.985V182.652L137.336 180.895H138.669ZM145.246 180.895V191.5H143.913V182.271H143.854L141.276 183.985V182.652L143.913 180.895H145.246Z" fill="#1A1E27"/>
<path d="M184.556 180.895V191.5H183.223V182.271H183.164L180.586 183.985V182.652L183.223 180.895H184.556ZM187.383 191.5L187.368 190.533L190.986 186.725C192.239 185.392 192.839 184.674 192.847 183.692C192.839 182.601 191.931 181.898 190.737 181.891C189.47 181.898 188.679 182.696 188.672 183.883H187.427C187.412 182.008 188.862 180.748 190.781 180.748C192.708 180.748 194.07 182.044 194.077 183.692C194.07 184.879 193.521 185.802 191.646 187.735L189.214 190.24V190.328H194.268V191.5H187.383Z" fill="#C4C5D4"/>
<path d="M231.329 180.895V191.5H229.996V182.271H229.937L227.359 183.985V182.652L229.996 180.895H231.329ZM237.818 191.646C235.708 191.646 234.192 190.519 234.126 188.834H235.459C235.533 189.845 236.536 190.475 237.803 190.475C239.202 190.475 240.213 189.72 240.22 188.614C240.213 187.457 239.29 186.644 237.642 186.637H236.778V185.479H237.642C238.931 185.479 239.832 184.754 239.825 183.663C239.832 182.601 239.056 181.898 237.847 181.891C236.712 181.898 235.679 182.521 235.621 183.561H234.346C234.412 181.876 235.979 180.748 237.862 180.748C239.883 180.748 241.114 182.074 241.099 183.59C241.114 184.798 240.411 185.677 239.297 185.992V186.065C240.682 186.278 241.517 187.267 241.509 188.614C241.517 190.357 239.935 191.646 237.818 191.646Z" fill="#C4C5D4"/>
<path d="M278.277 180.895V191.5H276.944V182.271H276.886L274.308 183.985V182.652L276.944 180.895H278.277ZM280.841 189.332V188.248L285.616 180.895H287.242V188.175H288.722V189.332H287.242V191.5H285.982V189.332H280.841ZM282.262 188.175H285.982V182.564H285.851L282.262 188.087V188.175Z" fill="#1A1E27"/>
<path d="M325.482 180.895V191.5H324.149V182.271H324.091L321.513 183.985V182.652L324.149 180.895H325.482ZM331.767 191.646C329.855 191.646 328.405 190.467 328.324 188.834H329.599C329.694 189.779 330.617 190.482 331.767 190.489C333.144 190.482 334.14 189.479 334.14 188.146C334.14 186.769 333.107 185.75 331.679 185.743C330.785 185.729 330.089 186.007 329.701 186.695H328.427L329.174 180.895H334.916V182.066H330.272L329.877 185.172H329.979C330.456 184.806 331.166 184.557 331.913 184.557C333.935 184.557 335.421 186.051 335.429 188.116C335.421 190.167 333.883 191.646 331.767 191.646Z" fill="#C4C5D4"/>
<path d="M43.3579 223.895V234.5H42.0249V225.271H41.9663L39.3882 226.985V225.652L42.0249 223.895H43.3579ZM49.8765 234.646C48.0381 234.625 46.0093 233.533 46.0093 229.607C46.0093 225.85 47.5474 223.748 50.0376 223.748C51.9053 223.748 53.209 224.898 53.48 226.561H52.1763C51.9346 225.623 51.2168 224.92 50.0376 224.92C48.2944 224.92 47.2471 226.407 47.2544 228.963H47.3862C47.9941 228.077 48.9683 227.557 50.1108 227.557C51.9932 227.557 53.5679 229.021 53.5679 231.072C53.5679 233.072 52.1104 234.668 49.8765 234.646ZM47.4302 231.102C47.4375 232.347 48.4556 233.482 49.8765 233.489C51.2461 233.482 52.2861 232.405 52.2935 231.087C52.2861 229.783 51.29 228.721 49.9058 228.714C48.5142 228.721 47.4448 229.849 47.4302 231.102Z" fill="#1A1E27"/>
<path d="M90.8193 223.895V234.5H89.4863V225.271H89.4277L86.8496 226.985V225.652L89.4863 223.895H90.8193ZM93.9834 234.5L98.8467 225.14V225.066H93.2363V223.895H100.209V225.125L95.3604 234.5H93.9834Z" fill="#C4C5D4"/>
<path d="M137.409 223.895V234.5H136.076V225.271H136.018L133.439 226.985V225.652L136.076 223.895H137.409ZM143.781 234.646C141.547 234.646 140.009 233.409 140.017 231.688C140.009 230.318 140.961 229.183 142.17 228.992V228.934C141.115 228.692 140.419 227.718 140.427 226.561C140.419 224.942 141.84 223.748 143.781 223.748C145.715 223.748 147.136 224.942 147.15 226.561C147.136 227.718 146.433 228.692 145.393 228.934V228.992C146.594 229.183 147.546 230.318 147.561 231.688C147.546 233.409 145.993 234.646 143.781 234.646ZM141.335 231.614C141.313 232.728 142.258 233.482 143.781 233.489C145.297 233.482 146.242 232.728 146.242 231.614C146.242 230.442 145.209 229.578 143.781 229.578C142.36 229.578 141.313 230.442 141.335 231.614ZM141.701 226.663C141.708 227.732 142.565 228.458 143.781 228.465C144.99 228.458 145.861 227.732 145.861 226.663C145.861 225.601 145.019 224.883 143.781 224.891C142.521 224.883 141.708 225.601 141.701 226.663Z" fill="#1A1E27"/>
<path d="M184.358 223.895V234.5H183.025V225.271H182.966L180.388 226.985V225.652L183.025 223.895H184.358ZM190.715 223.748C192.539 223.77 194.568 224.869 194.568 228.772C194.568 232.544 193.022 234.646 190.54 234.646C188.672 234.646 187.361 233.504 187.097 231.819H188.401C188.635 232.771 189.36 233.475 190.54 233.475C192.268 233.475 193.323 231.98 193.337 229.402H193.191C192.583 230.281 191.609 230.809 190.481 230.809C188.584 230.809 187.009 229.351 187.009 227.308C187.009 225.33 188.459 223.726 190.715 223.748ZM188.298 227.293C188.291 228.604 189.287 229.651 190.671 229.651C192.056 229.651 193.132 228.509 193.132 227.264C193.132 226.048 192.114 224.905 190.715 224.905C189.331 224.905 188.284 225.982 188.298 227.293Z" fill="#C4C5D4"/>
<path d="M226.626 234.5L226.612 233.533L230.23 229.725C231.482 228.392 232.083 227.674 232.09 226.692C232.083 225.601 231.175 224.898 229.981 224.891C228.714 224.898 227.923 225.696 227.916 226.883H226.67C226.656 225.008 228.106 223.748 230.025 223.748C231.951 223.748 233.313 225.044 233.321 226.692C233.313 227.879 232.764 228.802 230.889 230.735L228.458 233.24V233.328H233.511V234.5H226.626ZM238.902 234.646C236.551 234.646 235.188 232.669 235.196 229.197C235.188 225.755 236.565 223.748 238.902 223.748C241.231 223.748 242.608 225.755 242.608 229.197C242.608 232.669 241.253 234.646 238.902 234.646ZM236.47 229.197C236.478 231.944 237.364 233.475 238.902 233.475C240.433 233.475 241.326 231.944 241.319 229.197C241.326 226.451 240.425 224.898 238.902 224.891C237.378 224.898 236.478 226.451 236.47 229.197Z" fill="#1A1E27"/>
<path d="M274.806 234.5L274.791 233.533L278.409 229.725C279.662 228.392 280.262 227.674 280.27 226.692C280.262 225.601 279.354 224.898 278.16 224.891C276.893 224.898 276.102 225.696 276.095 226.883H274.85C274.835 225.008 276.285 223.748 278.204 223.748C280.13 223.748 281.493 225.044 281.5 226.692C281.493 227.879 280.943 228.802 279.068 230.735L276.637 233.24V233.328H281.69V234.5H274.806ZM287.359 223.895V234.5H286.026V225.271H285.968L283.39 226.985V225.652L286.026 223.895H287.359Z" fill="#C4C5D4"/>
<path d="M320.692 234.5L320.678 233.533L324.296 229.725C325.548 228.392 326.149 227.674 326.156 226.692C326.149 225.601 325.241 224.898 324.047 224.891C322.78 224.898 321.989 225.696 321.981 226.883H320.736C320.722 225.008 322.172 223.748 324.091 223.748C326.017 223.748 327.379 225.044 327.387 226.692C327.379 227.879 326.83 228.802 324.955 230.735L322.523 233.24V233.328H327.577V234.5H320.692ZM329.496 234.5L329.481 233.533L333.1 229.725C334.352 228.392 334.953 227.674 334.96 226.692C334.953 225.601 334.044 224.898 332.851 224.891C331.583 224.898 330.792 225.696 330.785 226.883H329.54C329.525 225.008 330.976 223.748 332.895 223.748C334.821 223.748 336.183 225.044 336.19 226.692C336.183 227.879 335.634 228.802 333.759 230.735L331.327 233.24V233.328H336.381V234.5H329.496Z" fill="#C4C5D4"/>
<path d="M38.4653 277.5L38.4507 276.533L42.0688 272.725C43.3213 271.392 43.9219 270.674 43.9292 269.692C43.9219 268.601 43.0137 267.898 41.8198 267.891C40.5527 267.898 39.7617 268.696 39.7544 269.883H38.5093C38.4946 268.008 39.9448 266.748 41.8638 266.748C43.79 266.748 45.1523 268.044 45.1597 269.692C45.1523 270.879 44.603 271.802 42.728 273.735L40.2964 276.24V276.328H45.3501V277.5H38.4653ZM50.9312 277.646C48.8218 277.646 47.3057 276.519 47.2397 274.834H48.5728C48.646 275.845 49.6494 276.475 50.9165 276.475C52.3154 276.475 53.3262 275.72 53.3335 274.614C53.3262 273.457 52.4033 272.644 50.7554 272.637H49.8911V271.479H50.7554C52.0444 271.479 52.9453 270.754 52.938 269.663C52.9453 268.601 52.1689 267.898 50.9604 267.891C49.8252 267.898 48.7925 268.521 48.7339 269.561H47.4595C47.5254 267.876 49.0928 266.748 50.9751 266.748C52.9966 266.748 54.2271 268.074 54.2124 269.59C54.2271 270.798 53.5239 271.677 52.4106 271.992V272.065C53.7949 272.278 54.6299 273.267 54.6226 274.614C54.6299 276.357 53.0479 277.646 50.9312 277.646Z" fill="#C4C5D4"/>
<path d="M85.5312 277.5L85.5166 276.533L89.1348 272.725C90.3872 271.392 90.9878 270.674 90.9951 269.692C90.9878 268.601 90.0796 267.898 88.8857 267.891C87.6187 267.898 86.8276 268.696 86.8203 269.883H85.5752C85.5605 268.008 87.0107 266.748 88.9297 266.748C90.856 266.748 92.2183 268.044 92.2256 269.692C92.2183 270.879 91.6689 271.802 89.7939 273.735L87.3623 276.24V276.328H92.416V277.5H85.5312ZM93.8369 275.332V274.248L98.6123 266.895H100.238V274.175H101.718V275.332H100.238V277.5H98.9785V275.332H93.8369ZM95.2578 274.175H98.9785V268.564H98.8467L95.2578 274.087V274.175Z" fill="#C4C5D4"/>
<path d="M132.619 277.5L132.604 276.533L136.223 272.725C137.475 271.392 138.076 270.674 138.083 269.692C138.076 268.601 137.167 267.898 135.974 267.891C134.707 267.898 133.916 268.696 133.908 269.883H132.663C132.648 268.008 134.099 266.748 136.018 266.748C137.944 266.748 139.306 268.044 139.313 269.692C139.306 270.879 138.757 271.802 136.882 273.735L134.45 276.24V276.328H139.504V277.5H132.619ZM144.88 277.646C142.968 277.646 141.518 276.467 141.438 274.834H142.712C142.807 275.779 143.73 276.482 144.88 276.489C146.257 276.482 147.253 275.479 147.253 274.146C147.253 272.769 146.22 271.75 144.792 271.743C143.898 271.729 143.203 272.007 142.814 272.695H141.54L142.287 266.895H148.029V268.066H143.386L142.99 271.172H143.093C143.569 270.806 144.279 270.557 145.026 270.557C147.048 270.557 148.535 272.051 148.542 274.116C148.535 276.167 146.997 277.646 144.88 277.646Z" fill="#C4C5D4"/>
<path d="M179.495 277.5L179.48 276.533L183.098 272.725C184.351 271.392 184.951 270.674 184.958 269.692C184.951 268.601 184.043 267.898 182.849 267.891C181.582 267.898 180.791 268.696 180.784 269.883H179.539C179.524 268.008 180.974 266.748 182.893 266.748C184.819 266.748 186.182 268.044 186.189 269.692C186.182 270.879 185.632 271.802 183.757 273.735L181.326 276.24V276.328H186.379V277.5H179.495ZM191.99 277.646C190.151 277.625 188.123 276.533 188.123 272.607C188.123 268.85 189.661 266.748 192.151 266.748C194.019 266.748 195.322 267.898 195.593 269.561H194.29C194.048 268.623 193.33 267.92 192.151 267.92C190.408 267.92 189.36 269.407 189.368 271.963H189.5C190.107 271.077 191.082 270.557 192.224 270.557C194.106 270.557 195.681 272.021 195.681 274.072C195.681 276.072 194.224 277.668 191.99 277.646ZM189.543 274.102C189.551 275.347 190.569 276.482 191.99 276.489C193.359 276.482 194.399 275.405 194.407 274.087C194.399 272.783 193.403 271.721 192.019 271.714C190.627 271.721 189.558 272.849 189.543 274.102Z" fill="#C4C5D4"/>
<path d="M226.956 277.5L226.941 276.533L230.56 272.725C231.812 271.392 232.413 270.674 232.42 269.692C232.413 268.601 231.504 267.898 230.311 267.891C229.043 267.898 228.252 268.696 228.245 269.883H227C226.985 268.008 228.436 266.748 230.354 266.748C232.281 266.748 233.643 268.044 233.65 269.692C233.643 270.879 233.094 271.802 231.219 273.735L228.787 276.24V276.328H233.841V277.5H226.956ZM236.097 277.5L240.96 268.14V268.066H235.35V266.895H242.322V268.125L237.474 277.5H236.097Z" fill="#C4C5D4"/>
<path d="M273.546 277.5L273.531 276.533L277.149 272.725C278.402 271.392 279.002 270.674 279.01 269.692C279.002 268.601 278.094 267.898 276.9 267.891C275.633 267.898 274.842 268.696 274.835 269.883H273.59C273.575 268.008 275.025 266.748 276.944 266.748C278.871 266.748 280.233 268.044 280.24 269.692C280.233 270.879 279.684 271.802 277.809 273.735L275.377 276.24V276.328H280.431V277.5H273.546ZM285.895 277.646C283.661 277.646 282.123 276.409 282.13 274.688C282.123 273.318 283.075 272.183 284.283 271.992V271.934C283.229 271.692 282.533 270.718 282.54 269.561C282.533 267.942 283.954 266.748 285.895 266.748C287.828 266.748 289.249 267.942 289.264 269.561C289.249 270.718 288.546 271.692 287.506 271.934V271.992C288.707 272.183 289.659 273.318 289.674 274.688C289.659 276.409 288.106 277.646 285.895 277.646ZM283.448 274.614C283.426 275.728 284.371 276.482 285.895 276.489C287.411 276.482 288.355 275.728 288.355 274.614C288.355 273.442 287.323 272.578 285.895 272.578C284.474 272.578 283.426 273.442 283.448 274.614ZM283.814 269.663C283.822 270.732 284.679 271.458 285.895 271.465C287.103 271.458 287.975 270.732 287.975 269.663C287.975 268.601 287.132 267.883 285.895 267.891C284.635 267.883 283.822 268.601 283.814 269.663Z" fill="#C4C5D4"/>
<path d="M320.495 277.5L320.48 276.533L324.098 272.725C325.351 271.392 325.951 270.674 325.958 269.692C325.951 268.601 325.043 267.898 323.849 267.891C322.582 267.898 321.791 268.696 321.784 269.883H320.539C320.524 268.008 321.974 266.748 323.893 266.748C325.819 266.748 327.182 268.044 327.189 269.692C327.182 270.879 326.632 271.802 324.757 273.735L322.326 276.24V276.328H327.379V277.5H320.495ZM332.829 266.748C334.652 266.77 336.681 267.869 336.681 271.772C336.681 275.544 335.136 277.646 332.653 277.646C330.785 277.646 329.474 276.504 329.21 274.819H330.514C330.749 275.771 331.474 276.475 332.653 276.475C334.381 276.475 335.436 274.98 335.451 272.402H335.304C334.696 273.281 333.722 273.809 332.594 273.809C330.697 273.809 329.123 272.351 329.123 270.308C329.123 268.33 330.573 266.726 332.829 266.748ZM330.412 270.293C330.404 271.604 331.4 272.651 332.785 272.651C334.169 272.651 335.246 271.509 335.246 270.264C335.246 269.048 334.228 267.905 332.829 267.905C331.444 267.905 330.397 268.982 330.412 270.293Z" fill="#C4C5D4"/>
<path d="M42.0615 320.646C39.9521 320.646 38.436 319.519 38.3701 317.834H39.7031C39.7764 318.845 40.7798 319.475 42.0469 319.475C43.4458 319.475 44.4565 318.72 44.4639 317.614C44.4565 316.457 43.5337 315.644 41.8857 315.637H41.0215V314.479H41.8857C43.1748 314.479 44.0757 313.754 44.0684 312.663C44.0757 311.601 43.2993 310.898 42.0908 310.891C40.9556 310.898 39.9229 311.521 39.8643 312.561H38.5898C38.6558 310.876 40.2231 309.748 42.1055 309.748C44.127 309.748 45.3574 311.074 45.3428 312.59C45.3574 313.798 44.6543 314.677 43.541 314.992V315.065C44.9253 315.278 45.7603 316.267 45.7529 317.614C45.7603 319.357 44.1782 320.646 42.0615 320.646ZM51.1289 320.646C48.7778 320.646 47.4155 318.669 47.4229 315.197C47.4155 311.755 48.7925 309.748 51.1289 309.748C53.458 309.748 54.835 311.755 54.835 315.197C54.835 318.669 53.48 320.646 51.1289 320.646ZM48.6973 315.197C48.7046 317.944 49.5908 319.475 51.1289 319.475C52.6597 319.475 53.5532 317.944 53.5459 315.197C53.5532 312.451 52.6523 310.898 51.1289 310.891C49.6055 310.898 48.7046 312.451 48.6973 315.197Z" fill="#C4C5D4"/>
<path d="M90.2407 320.646C88.1313 320.646 86.6152 319.519 86.5493 317.834H87.8823C87.9556 318.845 88.959 319.475 90.2261 319.475C91.625 319.475 92.6357 318.72 92.6431 317.614C92.6357 316.457 91.7129 315.644 90.0649 315.637H89.2007V314.479H90.0649C91.354 314.479 92.2549 313.754 92.2476 312.663C92.2549 311.601 91.4785 310.898 90.27 310.891C89.1348 310.898 88.1021 311.521 88.0435 312.561H86.769C86.835 310.876 88.4023 309.748 90.2847 309.748C92.3062 309.748 93.5366 311.074 93.522 312.59C93.5366 313.798 92.8335 314.677 91.7202 314.992V315.065C93.1045 315.278 93.9395 316.267 93.9321 317.614C93.9395 319.357 92.3574 320.646 90.2407 320.646ZM99.5864 309.895V320.5H98.2534V311.271H98.1948L95.6167 312.985V311.652L98.2534 309.895H99.5864Z" fill="#C4C5D4"/>
</svg>
