<svg width="420" height="401" viewBox="0 0 420 401" fill="none" xmlns="http://www.w3.org/2000/svg">
<g filter="url(#filter0_dd_3705_24759)">
<rect x="22" y="19" width="375" height="348" rx="20" fill="white" shape-rendering="crispEdges"/>
<rect width="153" height="23" transform="translate(133 34.5)" fill="white"/>
<path d="M146.75 38.5L139.243 45.2567C138.801 45.6539 138.801 46.3461 139.243 46.7433L146.75 53.5" stroke="#A5A9BD" stroke-width="2" stroke-linecap="round"/>
<path d="M177.919 51.5V50.123L181.669 46.5049C182.739 45.4355 183.295 44.8057 183.295 43.9121C183.295 42.9233 182.512 42.3008 181.479 42.3008C180.388 42.3008 179.685 42.9819 179.692 44.0586H177.875C177.868 42.0518 179.377 40.748 181.494 40.748C183.662 40.748 185.119 42.0444 185.126 43.8242C185.119 45.0181 184.548 45.9849 182.46 47.9551L180.571 49.8301V49.9033H185.288V51.5H177.919ZM190.869 51.6465C188.312 51.6465 186.789 49.6689 186.796 46.1973C186.789 42.7402 188.327 40.748 190.869 40.748C193.41 40.748 194.941 42.7402 194.941 46.1973C194.941 49.6763 193.417 51.6465 190.869 51.6465ZM188.715 46.1973C188.715 48.7461 189.536 50.0425 190.869 50.0498C192.194 50.0425 193.022 48.7461 193.022 46.1973C193.015 43.6704 192.194 42.3374 190.869 42.3301C189.543 42.3374 188.723 43.6704 188.715 46.1973ZM196.538 51.5V50.123L200.288 46.5049C201.357 45.4355 201.914 44.8057 201.914 43.9121C201.914 42.9233 201.13 42.3008 200.097 42.3008C199.006 42.3008 198.303 42.9819 198.31 44.0586H196.494C196.486 42.0518 197.995 40.748 200.112 40.748C202.28 40.748 203.737 42.0444 203.745 43.8242C203.737 45.0181 203.166 45.9849 201.079 47.9551L199.189 49.8301V49.9033H203.906V51.5H196.538ZM209.428 51.6465C207.165 51.6465 205.546 50.416 205.502 48.6289H207.421C207.473 49.4785 208.322 50.0425 209.428 50.0352C210.593 50.0425 211.435 49.3979 211.435 48.4531C211.435 47.501 210.615 46.8198 209.238 46.8125H208.286V45.3477H209.238C210.366 45.3477 211.149 44.7178 211.142 43.7949C211.149 42.9014 210.476 42.3008 209.443 42.3008C208.447 42.3008 207.59 42.8574 207.553 43.751H205.722C205.766 41.9712 207.385 40.748 209.458 40.748C211.611 40.748 213.002 42.0664 212.988 43.6924C213.002 44.8789 212.211 45.7358 211.054 45.9775V46.0654C212.548 46.2632 213.398 47.2227 213.383 48.5557C213.398 50.3501 211.721 51.6465 209.428 51.6465ZM215.903 51.6172C215.273 51.6172 214.753 51.1045 214.76 50.4746C214.753 49.8594 215.273 49.354 215.903 49.3467C216.511 49.354 217.031 49.8594 217.031 50.4746C217.031 51.1045 216.511 51.6172 215.903 51.6172ZM225.952 51.6465C223.396 51.6465 221.872 49.6689 221.879 46.1973C221.872 42.7402 223.41 40.748 225.952 40.748C228.493 40.748 230.024 42.7402 230.024 46.1973C230.024 49.6763 228.5 51.6465 225.952 51.6465ZM223.798 46.1973C223.798 48.7461 224.619 50.0425 225.952 50.0498C227.277 50.0425 228.105 48.7461 228.105 46.1973C228.098 43.6704 227.277 42.3374 225.952 42.3301C224.626 42.3374 223.806 43.6704 223.798 46.1973ZM231.723 51.5L236.323 42.5645V42.4912H230.991V40.8945H238.3V42.5205L233.701 51.5H231.723Z" fill="#141414"/>
<path d="M268.833 53.5L276.341 46.7433C276.782 46.3461 276.782 45.6539 276.341 45.2567L268.833 38.5" stroke="#A5A9BD" stroke-width="2" stroke-linecap="round"/>
<rect width="327" height="20" transform="translate(46 81.5)" fill="white"/>
<path d="M66.5386 86.6611C68.2271 86.6675 69.4521 87.6958 69.4585 89.1621C69.4521 90.6348 68.2271 91.6504 66.5386 91.6504C64.8311 91.6504 63.5996 90.6348 63.606 89.1621C63.5996 87.6958 64.8311 86.6675 66.5386 86.6611ZM64.5835 89.1621C64.5708 90.1523 65.4023 90.8379 66.5386 90.8379C67.6558 90.8379 68.4937 90.1523 68.4937 89.1621C68.4937 88.1846 67.6558 87.4927 66.5386 87.499C65.4023 87.4927 64.5708 88.1846 64.5835 89.1621ZM65.3198 93.3896V92.5898H72.6577V95.3066H66.3228V96.5762H73.064V97.376H65.3452V94.5576H71.6675V93.3896H65.3198ZM71.6675 92.0439V86.2422H72.6577V92.0439H71.6675Z" fill="#595F72"/>
<path d="M119.645 86.2549V92.9072H118.642V92.2852H116.357V91.625H118.642V86.2549H119.645ZM110.301 90.5078C112.485 90.5205 115.278 90.4951 117.715 90.2285L117.779 90.876C116.674 91.0347 115.525 91.1299 114.402 91.1807V92.9453H113.424V91.2188C112.358 91.2568 111.33 91.2568 110.416 91.2568L110.301 90.5078ZM111.177 88.1719C111.177 87.1245 112.282 86.4707 113.983 86.4707C115.665 86.4707 116.776 87.1245 116.789 88.1719C116.776 89.2256 115.665 89.854 113.983 89.8604C112.282 89.854 111.177 89.2256 111.177 88.1719ZM112.028 94.0371V93.3135H119.645V95.6494H113.056V96.665H120.013V97.4014H112.079V94.9512H118.655V94.0371H112.028ZM112.117 88.1719C112.11 88.7686 112.847 89.1748 113.983 89.1748C115.106 89.1748 115.843 88.7686 115.849 88.1719C115.843 87.5688 115.106 87.1626 113.983 87.1689C112.847 87.1626 112.11 87.5688 112.117 88.1719Z" fill="#595F72"/>
<path d="M166.099 86.2422V91.0537H167.902V91.8916H166.099V97.5283H165.096V86.2422H166.099ZM157.2 94.5195C158.12 94.5195 159.193 94.5132 160.31 94.4814V93.2373C158.996 93.085 158.139 92.3105 158.152 91.1934C158.139 89.9175 159.218 89.0923 160.818 89.0986C162.392 89.0923 163.49 89.9175 163.497 91.1934C163.49 92.3169 162.621 93.085 161.313 93.2373V94.4434C162.36 94.3926 163.427 94.3037 164.411 94.1641L164.474 94.9258C162.011 95.3447 159.345 95.3701 157.365 95.3701L157.2 94.5195ZM157.403 88.4385V87.626H160.31V86.2676H161.313V87.626H164.208V88.4385H157.403ZM159.079 91.1934C159.085 91.9741 159.771 92.4883 160.818 92.4756C161.846 92.4883 162.538 91.9741 162.544 91.1934C162.538 90.4062 161.846 89.873 160.818 89.873C159.771 89.873 159.085 90.4062 159.079 91.1934Z" fill="#595F72"/>
<path d="M210.001 87.2959C210.008 88.8892 212.077 90.2603 214.115 90.5459L213.708 91.3584C211.957 91.0664 210.217 90.0952 209.494 88.7114C208.77 90.1079 207.037 91.0664 205.279 91.3584L204.873 90.5459C206.91 90.2603 208.973 88.9146 208.973 87.2959V86.6484H210.001V87.2959ZM204.339 93.4404V92.6025H214.623V93.4404H209.951V97.5283H208.973V93.4404H204.339Z" fill="#595F72"/>
<path d="M260.315 86.7246V90.5332H256.976V91.9805H261.623V92.793H251.339V91.9805H255.986V90.5332H252.672V86.7246H260.315ZM252.482 94.7734V93.9736H260.353V97.5283H259.35V94.7734H252.482ZM253.65 89.7334H259.325V87.5244H253.65V89.7334Z" fill="#595F72"/>
<path d="M307.315 86.8516V87.6895C307.315 88.5654 307.315 89.5938 307.017 91.0029H308.673V91.8281H298.339V91.0029H306.014C306.331 89.5811 306.331 88.5654 306.325 87.6895V87.6768H299.647V86.8516H307.315ZM299.609 97.376V93.3896H307.366V97.376H299.609ZM300.599 96.5635H306.375V94.1768H300.599V96.5635Z" fill="#595F72"/>
<path d="M354.48 92.1201V92.9326H350.976V95.2939H355.673V96.1191H345.339V95.2939H349.986V92.9326H346.672V87.1689H354.353V87.9941H347.688V89.6064H354.112V90.4189H347.688V92.1201H354.48Z" fill="#595F72"/>
<rect width="327" height="250" transform="translate(46 101.5)" fill="white"/>
<path d="M351.958 113.895V124.5H350.625V115.271H350.566L347.988 116.985V115.652L350.625 113.895H351.958Z" fill="#C4C5D4"/>
<path d="M65.0942 167.5L65.0796 166.533L68.6978 162.725C69.9502 161.392 70.5508 160.674 70.5581 159.692C70.5508 158.601 69.6426 157.898 68.4487 157.891C67.1816 157.898 66.3906 158.696 66.3833 159.883H65.1382C65.1235 158.008 66.5737 156.748 68.4927 156.748C70.4189 156.748 71.7812 158.044 71.7886 159.692C71.7812 160.879 71.2319 161.802 69.3569 163.735L66.9253 166.24V166.328H71.979V167.5H65.0942Z" fill="#C4C5D4"/>
<path d="M115.529 167.646C113.42 167.646 111.904 166.519 111.838 164.834H113.171C113.244 165.845 114.248 166.475 115.515 166.475C116.914 166.475 117.924 165.72 117.932 164.614C117.924 163.457 117.001 162.644 115.354 162.637H114.489V161.479H115.354C116.643 161.479 117.543 160.754 117.536 159.663C117.543 158.601 116.767 157.898 115.559 157.891C114.423 157.898 113.391 158.521 113.332 159.561H112.058C112.124 157.876 113.691 156.748 115.573 156.748C117.595 156.748 118.825 158.074 118.811 159.59C118.825 160.798 118.122 161.677 117.009 161.992V162.065C118.393 162.278 119.228 163.267 119.221 164.614C119.228 166.357 117.646 167.646 115.529 167.646Z" fill="#C4C5D4"/>
<rect x="145" y="144.5" width="35" height="35" rx="17.5" fill="#8457F1"/>
<path d="M158.552 165.332V164.248L163.328 156.895H164.954V164.175H166.433V165.332H164.954V167.5H163.694V165.332H158.552ZM159.973 164.175H163.694V158.564H163.562L159.973 164.087V164.175Z" fill="white"/>
<rect x="192" y="144.5" width="35" height="35" rx="17.5" fill="#E8EBF0"/>
<path d="M209.478 167.646C207.566 167.646 206.116 166.467 206.036 164.834H207.31C207.405 165.779 208.328 166.482 209.478 166.489C210.855 166.482 211.851 165.479 211.851 164.146C211.851 162.769 210.818 161.75 209.39 161.743C208.497 161.729 207.801 162.007 207.413 162.695H206.138L206.885 156.895H212.627V158.066H207.984L207.588 161.172H207.691C208.167 160.806 208.877 160.557 209.625 160.557C211.646 160.557 213.133 162.051 213.14 164.116C213.133 166.167 211.595 167.646 209.478 167.646Z" fill="#141414"/>
<rect x="239" y="144.5" width="35" height="35" rx="17.5" fill="white"/>
<path d="M256.588 167.646C254.75 167.625 252.721 166.533 252.721 162.607C252.721 158.85 254.259 156.748 256.749 156.748C258.617 156.748 259.92 157.898 260.191 159.561H258.888C258.646 158.623 257.928 157.92 256.749 157.92C255.006 157.92 253.958 159.407 253.966 161.963H254.098C254.706 161.077 255.68 160.557 256.822 160.557C258.705 160.557 260.279 162.021 260.279 164.072C260.279 166.072 258.822 167.668 256.588 167.646ZM254.142 164.102C254.149 165.347 255.167 166.482 256.588 166.489C257.958 166.482 258.998 165.405 259.005 164.087C258.998 162.783 258.001 161.721 256.617 161.714C255.226 161.721 254.156 162.849 254.142 164.102Z" fill="#1A1E27"/>
<path d="M300.695 167.5L305.558 158.14V158.066H299.948V156.895H306.92V158.125L302.072 167.5H300.695Z" fill="#C4C5D4"/>
<rect x="333" y="144.5" width="35" height="35" rx="17.5" fill="white"/>
<path d="M350.493 167.646C348.259 167.646 346.721 166.409 346.728 164.688C346.721 163.318 347.673 162.183 348.881 161.992V161.934C347.827 161.692 347.131 160.718 347.138 159.561C347.131 157.942 348.552 156.748 350.493 156.748C352.426 156.748 353.847 157.942 353.862 159.561C353.847 160.718 353.144 161.692 352.104 161.934V161.992C353.305 162.183 354.257 163.318 354.272 164.688C354.257 166.409 352.705 167.646 350.493 167.646ZM348.046 164.614C348.024 165.728 348.969 166.482 350.493 166.489C352.009 166.482 352.954 165.728 352.954 164.614C352.954 163.442 351.921 162.578 350.493 162.578C349.072 162.578 348.024 163.442 348.046 164.614ZM348.413 159.663C348.42 160.732 349.277 161.458 350.493 161.465C351.701 161.458 352.573 160.732 352.573 159.663C352.573 158.601 351.73 157.883 350.493 157.891C349.233 157.883 348.42 158.601 348.413 159.663Z" fill="#C4C5D4"/>
<path d="M68.4268 199.748C70.2505 199.77 72.2793 200.869 72.2793 204.772C72.2793 208.544 70.7339 210.646 68.251 210.646C66.3833 210.646 65.0723 209.504 64.8086 207.819H66.1123C66.3467 208.771 67.0718 209.475 68.251 209.475C69.9795 209.475 71.0342 207.98 71.0488 205.402H70.9023C70.2944 206.281 69.3203 206.809 68.1924 206.809C66.2954 206.809 64.7207 205.351 64.7207 203.308C64.7207 201.33 66.1709 199.726 68.4268 199.748ZM66.0098 203.293C66.0024 204.604 66.9985 205.651 68.3828 205.651C69.7671 205.651 70.8438 204.509 70.8438 203.264C70.8438 202.048 69.8257 200.905 68.4268 200.905C67.0425 200.905 65.9951 201.982 66.0098 203.293Z" fill="#C4C5D4"/>
<path d="M112.49 199.895V210.5H111.157V201.271H111.098L108.52 202.985V201.652L111.157 199.895H112.49ZM118.789 210.646C116.438 210.646 115.075 208.669 115.083 205.197C115.075 201.755 116.452 199.748 118.789 199.748C121.118 199.748 122.495 201.755 122.495 205.197C122.495 208.669 121.14 210.646 118.789 210.646ZM116.357 205.197C116.364 207.944 117.25 209.475 118.789 209.475C120.319 209.475 121.213 207.944 121.206 205.197C121.213 202.451 120.312 200.898 118.789 200.891C117.265 200.898 116.364 202.451 116.357 205.197Z" fill="#1A1E27"/>
<path d="M160.669 199.895V210.5H159.336V201.271H159.277L156.699 202.985V201.652L159.336 199.895H160.669ZM167.246 199.895V210.5H165.913V201.271H165.854L163.276 202.985V201.652L165.913 199.895H167.246Z" fill="#1A1E27"/>
<path d="M206.556 199.895V210.5H205.223V201.271H205.164L202.586 202.985V201.652L205.223 199.895H206.556ZM209.383 210.5L209.368 209.533L212.986 205.725C214.239 204.392 214.839 203.674 214.847 202.692C214.839 201.601 213.931 200.898 212.737 200.891C211.47 200.898 210.679 201.696 210.672 202.883H209.427C209.412 201.008 210.862 199.748 212.781 199.748C214.708 199.748 216.07 201.044 216.077 202.692C216.07 203.879 215.521 204.802 213.646 206.735L211.214 209.24V209.328H216.268V210.5H209.383Z" fill="#C4C5D4"/>
<path d="M253.329 199.895V210.5H251.996V201.271H251.937L249.359 202.985V201.652L251.996 199.895H253.329ZM259.818 210.646C257.708 210.646 256.192 209.519 256.126 207.834H257.459C257.533 208.845 258.536 209.475 259.803 209.475C261.202 209.475 262.213 208.72 262.22 207.614C262.213 206.457 261.29 205.644 259.642 205.637H258.778V204.479H259.642C260.931 204.479 261.832 203.754 261.825 202.663C261.832 201.601 261.056 200.898 259.847 200.891C258.712 200.898 257.679 201.521 257.621 202.561H256.346C256.412 200.876 257.979 199.748 259.862 199.748C261.883 199.748 263.114 201.074 263.099 202.59C263.114 203.798 262.411 204.677 261.297 204.992V205.065C262.682 205.278 263.517 206.267 263.509 207.614C263.517 209.357 261.935 210.646 259.818 210.646Z" fill="#C4C5D4"/>
<path d="M300.277 199.895V210.5H298.944V201.271H298.886L296.308 202.985V201.652L298.944 199.895H300.277ZM302.841 208.332V207.248L307.616 199.895H309.242V207.175H310.722V208.332H309.242V210.5H307.982V208.332H302.841ZM304.262 207.175H307.982V201.564H307.851L304.262 207.087V207.175Z" fill="#1A1E27"/>
<path d="M347.482 199.895V210.5H346.149V201.271H346.091L343.513 202.985V201.652L346.149 199.895H347.482ZM353.767 210.646C351.855 210.646 350.405 209.467 350.324 207.834H351.599C351.694 208.779 352.617 209.482 353.767 209.489C355.144 209.482 356.14 208.479 356.14 207.146C356.14 205.769 355.107 204.75 353.679 204.743C352.785 204.729 352.089 205.007 351.701 205.695H350.427L351.174 199.895H356.916V201.066H352.272L351.877 204.172H351.979C352.456 203.806 353.166 203.557 353.913 203.557C355.935 203.557 357.421 205.051 357.429 207.116C357.421 209.167 355.883 210.646 353.767 210.646Z" fill="#C4C5D4"/>
<path d="M65.3579 242.895V253.5H64.0249V244.271H63.9663L61.3882 245.985V244.652L64.0249 242.895H65.3579ZM71.8765 253.646C70.0381 253.625 68.0093 252.533 68.0093 248.607C68.0093 244.85 69.5474 242.748 72.0376 242.748C73.9053 242.748 75.209 243.898 75.48 245.561H74.1763C73.9346 244.623 73.2168 243.92 72.0376 243.92C70.2944 243.92 69.2471 245.407 69.2544 247.963H69.3862C69.9941 247.077 70.9683 246.557 72.1108 246.557C73.9932 246.557 75.5679 248.021 75.5679 250.072C75.5679 252.072 74.1104 253.668 71.8765 253.646ZM69.4302 250.102C69.4375 251.347 70.4556 252.482 71.8765 252.489C73.2461 252.482 74.2861 251.405 74.2935 250.087C74.2861 248.783 73.29 247.721 71.9058 247.714C70.5142 247.721 69.4448 248.849 69.4302 250.102Z" fill="#1A1E27"/>
<path d="M112.819 242.895V253.5H111.486V244.271H111.428L108.85 245.985V244.652L111.486 242.895H112.819ZM115.983 253.5L120.847 244.14V244.066H115.236V242.895H122.209V244.125L117.36 253.5H115.983Z" fill="#C4C5D4"/>
<path d="M159.409 242.895V253.5H158.076V244.271H158.018L155.439 245.985V244.652L158.076 242.895H159.409ZM165.781 253.646C163.547 253.646 162.009 252.409 162.017 250.688C162.009 249.318 162.961 248.183 164.17 247.992V247.934C163.115 247.692 162.419 246.718 162.427 245.561C162.419 243.942 163.84 242.748 165.781 242.748C167.715 242.748 169.136 243.942 169.15 245.561C169.136 246.718 168.433 247.692 167.393 247.934V247.992C168.594 248.183 169.546 249.318 169.561 250.688C169.546 252.409 167.993 253.646 165.781 253.646ZM163.335 250.614C163.313 251.728 164.258 252.482 165.781 252.489C167.297 252.482 168.242 251.728 168.242 250.614C168.242 249.442 167.209 248.578 165.781 248.578C164.36 248.578 163.313 249.442 163.335 250.614ZM163.701 245.663C163.708 246.732 164.565 247.458 165.781 247.465C166.99 247.458 167.861 246.732 167.861 245.663C167.861 244.601 167.019 243.883 165.781 243.891C164.521 243.883 163.708 244.601 163.701 245.663Z" fill="#1A1E27"/>
<path d="M206.358 242.895V253.5H205.025V244.271H204.966L202.388 245.985V244.652L205.025 242.895H206.358ZM212.715 242.748C214.539 242.77 216.568 243.869 216.568 247.772C216.568 251.544 215.022 253.646 212.54 253.646C210.672 253.646 209.361 252.504 209.097 250.819H210.401C210.635 251.771 211.36 252.475 212.54 252.475C214.268 252.475 215.323 250.98 215.337 248.402H215.191C214.583 249.281 213.609 249.809 212.481 249.809C210.584 249.809 209.009 248.351 209.009 246.308C209.009 244.33 210.459 242.726 212.715 242.748ZM210.298 246.293C210.291 247.604 211.287 248.651 212.671 248.651C214.056 248.651 215.132 247.509 215.132 246.264C215.132 245.048 214.114 243.905 212.715 243.905C211.331 243.905 210.284 244.982 210.298 246.293Z" fill="#C4C5D4"/>
<path d="M248.626 253.5L248.612 252.533L252.23 248.725C253.482 247.392 254.083 246.674 254.09 245.692C254.083 244.601 253.175 243.898 251.981 243.891C250.714 243.898 249.923 244.696 249.916 245.883H248.67C248.656 244.008 250.106 242.748 252.025 242.748C253.951 242.748 255.313 244.044 255.321 245.692C255.313 246.879 254.764 247.802 252.889 249.735L250.458 252.24V252.328H255.511V253.5H248.626ZM260.902 253.646C258.551 253.646 257.188 251.669 257.196 248.197C257.188 244.755 258.565 242.748 260.902 242.748C263.231 242.748 264.608 244.755 264.608 248.197C264.608 251.669 263.253 253.646 260.902 253.646ZM258.47 248.197C258.478 250.944 259.364 252.475 260.902 252.475C262.433 252.475 263.326 250.944 263.319 248.197C263.326 245.451 262.425 243.898 260.902 243.891C259.378 243.898 258.478 245.451 258.47 248.197Z" fill="#1A1E27"/>
<path d="M296.806 253.5L296.791 252.533L300.409 248.725C301.662 247.392 302.262 246.674 302.27 245.692C302.262 244.601 301.354 243.898 300.16 243.891C298.893 243.898 298.102 244.696 298.095 245.883H296.85C296.835 244.008 298.285 242.748 300.204 242.748C302.13 242.748 303.493 244.044 303.5 245.692C303.493 246.879 302.943 247.802 301.068 249.735L298.637 252.24V252.328H303.69V253.5H296.806ZM309.359 242.895V253.5H308.026V244.271H307.968L305.39 245.985V244.652L308.026 242.895H309.359Z" fill="#C4C5D4"/>
<path d="M342.692 253.5L342.678 252.533L346.296 248.725C347.548 247.392 348.149 246.674 348.156 245.692C348.149 244.601 347.241 243.898 346.047 243.891C344.78 243.898 343.989 244.696 343.981 245.883H342.736C342.722 244.008 344.172 242.748 346.091 242.748C348.017 242.748 349.379 244.044 349.387 245.692C349.379 246.879 348.83 247.802 346.955 249.735L344.523 252.24V252.328H349.577V253.5H342.692ZM351.496 253.5L351.481 252.533L355.1 248.725C356.352 247.392 356.953 246.674 356.96 245.692C356.953 244.601 356.044 243.898 354.851 243.891C353.583 243.898 352.792 244.696 352.785 245.883H351.54C351.525 244.008 352.976 242.748 354.895 242.748C356.821 242.748 358.183 244.044 358.19 245.692C358.183 246.879 357.634 247.802 355.759 249.735L353.327 252.24V252.328H358.381V253.5H351.496Z" fill="#C4C5D4"/>
<path d="M60.4653 296.5L60.4507 295.533L64.0688 291.725C65.3213 290.392 65.9219 289.674 65.9292 288.692C65.9219 287.601 65.0137 286.898 63.8198 286.891C62.5527 286.898 61.7617 287.696 61.7544 288.883H60.5093C60.4946 287.008 61.9448 285.748 63.8638 285.748C65.79 285.748 67.1523 287.044 67.1597 288.692C67.1523 289.879 66.603 290.802 64.728 292.735L62.2964 295.24V295.328H67.3501V296.5H60.4653ZM72.9312 296.646C70.8218 296.646 69.3057 295.519 69.2397 293.834H70.5728C70.646 294.845 71.6494 295.475 72.9165 295.475C74.3154 295.475 75.3262 294.72 75.3335 293.614C75.3262 292.457 74.4033 291.644 72.7554 291.637H71.8911V290.479H72.7554C74.0444 290.479 74.9453 289.754 74.938 288.663C74.9453 287.601 74.1689 286.898 72.9604 286.891C71.8252 286.898 70.7925 287.521 70.7339 288.561H69.4595C69.5254 286.876 71.0928 285.748 72.9751 285.748C74.9966 285.748 76.2271 287.074 76.2124 288.59C76.2271 289.798 75.5239 290.677 74.4106 290.992V291.065C75.7949 291.278 76.6299 292.267 76.6226 293.614C76.6299 295.357 75.0479 296.646 72.9312 296.646Z" fill="#C4C5D4"/>
<path d="M107.531 296.5L107.517 295.533L111.135 291.725C112.387 290.392 112.988 289.674 112.995 288.692C112.988 287.601 112.08 286.898 110.886 286.891C109.619 286.898 108.828 287.696 108.82 288.883H107.575C107.561 287.008 109.011 285.748 110.93 285.748C112.856 285.748 114.218 287.044 114.226 288.692C114.218 289.879 113.669 290.802 111.794 292.735L109.362 295.24V295.328H114.416V296.5H107.531ZM115.837 294.332V293.248L120.612 285.895H122.238V293.175H123.718V294.332H122.238V296.5H120.979V294.332H115.837ZM117.258 293.175H120.979V287.564H120.847L117.258 293.087V293.175Z" fill="#C4C5D4"/>
<path d="M154.619 296.5L154.604 295.533L158.223 291.725C159.475 290.392 160.076 289.674 160.083 288.692C160.076 287.601 159.167 286.898 157.974 286.891C156.707 286.898 155.916 287.696 155.908 288.883H154.663C154.648 287.008 156.099 285.748 158.018 285.748C159.944 285.748 161.306 287.044 161.313 288.692C161.306 289.879 160.757 290.802 158.882 292.735L156.45 295.24V295.328H161.504V296.5H154.619ZM166.88 296.646C164.968 296.646 163.518 295.467 163.438 293.834H164.712C164.807 294.779 165.73 295.482 166.88 295.489C168.257 295.482 169.253 294.479 169.253 293.146C169.253 291.769 168.22 290.75 166.792 290.743C165.898 290.729 165.203 291.007 164.814 291.695H163.54L164.287 285.895H170.029V287.066H165.386L164.99 290.172H165.093C165.569 289.806 166.279 289.557 167.026 289.557C169.048 289.557 170.535 291.051 170.542 293.116C170.535 295.167 168.997 296.646 166.88 296.646Z" fill="#C4C5D4"/>
<path d="M201.495 296.5L201.48 295.533L205.098 291.725C206.351 290.392 206.951 289.674 206.958 288.692C206.951 287.601 206.043 286.898 204.849 286.891C203.582 286.898 202.791 287.696 202.784 288.883H201.539C201.524 287.008 202.974 285.748 204.893 285.748C206.819 285.748 208.182 287.044 208.189 288.692C208.182 289.879 207.632 290.802 205.757 292.735L203.326 295.24V295.328H208.379V296.5H201.495ZM213.99 296.646C212.151 296.625 210.123 295.533 210.123 291.607C210.123 287.85 211.661 285.748 214.151 285.748C216.019 285.748 217.322 286.898 217.593 288.561H216.29C216.048 287.623 215.33 286.92 214.151 286.92C212.408 286.92 211.36 288.407 211.368 290.963H211.5C212.107 290.077 213.082 289.557 214.224 289.557C216.106 289.557 217.681 291.021 217.681 293.072C217.681 295.072 216.224 296.668 213.99 296.646ZM211.543 293.102C211.551 294.347 212.569 295.482 213.99 295.489C215.359 295.482 216.399 294.405 216.407 293.087C216.399 291.783 215.403 290.721 214.019 290.714C212.627 290.721 211.558 291.849 211.543 293.102Z" fill="#C4C5D4"/>
<path d="M248.956 296.5L248.941 295.533L252.56 291.725C253.812 290.392 254.413 289.674 254.42 288.692C254.413 287.601 253.504 286.898 252.311 286.891C251.043 286.898 250.252 287.696 250.245 288.883H249C248.985 287.008 250.436 285.748 252.354 285.748C254.281 285.748 255.643 287.044 255.65 288.692C255.643 289.879 255.094 290.802 253.219 292.735L250.787 295.24V295.328H255.841V296.5H248.956ZM258.097 296.5L262.96 287.14V287.066H257.35V285.895H264.322V287.125L259.474 296.5H258.097Z" fill="#C4C5D4"/>
<path d="M295.546 296.5L295.531 295.533L299.149 291.725C300.402 290.392 301.002 289.674 301.01 288.692C301.002 287.601 300.094 286.898 298.9 286.891C297.633 286.898 296.842 287.696 296.835 288.883H295.59C295.575 287.008 297.025 285.748 298.944 285.748C300.871 285.748 302.233 287.044 302.24 288.692C302.233 289.879 301.684 290.802 299.809 292.735L297.377 295.24V295.328H302.431V296.5H295.546ZM307.895 296.646C305.661 296.646 304.123 295.409 304.13 293.688C304.123 292.318 305.075 291.183 306.283 290.992V290.934C305.229 290.692 304.533 289.718 304.54 288.561C304.533 286.942 305.954 285.748 307.895 285.748C309.828 285.748 311.249 286.942 311.264 288.561C311.249 289.718 310.546 290.692 309.506 290.934V290.992C310.707 291.183 311.659 292.318 311.674 293.688C311.659 295.409 310.106 296.646 307.895 296.646ZM305.448 293.614C305.426 294.728 306.371 295.482 307.895 295.489C309.411 295.482 310.355 294.728 310.355 293.614C310.355 292.442 309.323 291.578 307.895 291.578C306.474 291.578 305.426 292.442 305.448 293.614ZM305.814 288.663C305.822 289.732 306.679 290.458 307.895 290.465C309.103 290.458 309.975 289.732 309.975 288.663C309.975 287.601 309.132 286.883 307.895 286.891C306.635 286.883 305.822 287.601 305.814 288.663Z" fill="#C4C5D4"/>
<path d="M342.495 296.5L342.48 295.533L346.098 291.725C347.351 290.392 347.951 289.674 347.958 288.692C347.951 287.601 347.043 286.898 345.849 286.891C344.582 286.898 343.791 287.696 343.784 288.883H342.539C342.524 287.008 343.974 285.748 345.893 285.748C347.819 285.748 349.182 287.044 349.189 288.692C349.182 289.879 348.632 290.802 346.757 292.735L344.326 295.24V295.328H349.379V296.5H342.495ZM354.829 285.748C356.652 285.77 358.681 286.869 358.681 290.772C358.681 294.544 357.136 296.646 354.653 296.646C352.785 296.646 351.474 295.504 351.21 293.819H352.514C352.749 294.771 353.474 295.475 354.653 295.475C356.381 295.475 357.436 293.98 357.451 291.402H357.304C356.696 292.281 355.722 292.809 354.594 292.809C352.697 292.809 351.123 291.351 351.123 289.308C351.123 287.33 352.573 285.726 354.829 285.748ZM352.412 289.293C352.404 290.604 353.4 291.651 354.785 291.651C356.169 291.651 357.246 290.509 357.246 289.264C357.246 288.048 356.228 286.905 354.829 286.905C353.444 286.905 352.397 287.982 352.412 289.293Z" fill="#C4C5D4"/>
<path d="M64.0615 339.646C61.9521 339.646 60.436 338.519 60.3701 336.834H61.7031C61.7764 337.845 62.7798 338.475 64.0469 338.475C65.4458 338.475 66.4565 337.72 66.4639 336.614C66.4565 335.457 65.5337 334.644 63.8857 334.637H63.0215V333.479H63.8857C65.1748 333.479 66.0757 332.754 66.0684 331.663C66.0757 330.601 65.2993 329.898 64.0908 329.891C62.9556 329.898 61.9229 330.521 61.8643 331.561H60.5898C60.6558 329.876 62.2231 328.748 64.1055 328.748C66.127 328.748 67.3574 330.074 67.3428 331.59C67.3574 332.798 66.6543 333.677 65.541 333.992V334.065C66.9253 334.278 67.7603 335.267 67.7529 336.614C67.7603 338.357 66.1782 339.646 64.0615 339.646ZM73.1289 339.646C70.7778 339.646 69.4155 337.669 69.4229 334.197C69.4155 330.755 70.7925 328.748 73.1289 328.748C75.458 328.748 76.835 330.755 76.835 334.197C76.835 337.669 75.48 339.646 73.1289 339.646ZM70.6973 334.197C70.7046 336.944 71.5908 338.475 73.1289 338.475C74.6597 338.475 75.5532 336.944 75.5459 334.197C75.5532 331.451 74.6523 329.898 73.1289 329.891C71.6055 329.898 70.7046 331.451 70.6973 334.197Z" fill="#C4C5D4"/>
<path d="M112.241 339.646C110.131 339.646 108.615 338.519 108.549 336.834H109.882C109.956 337.845 110.959 338.475 112.226 338.475C113.625 338.475 114.636 337.72 114.643 336.614C114.636 335.457 113.713 334.644 112.065 334.637H111.201V333.479H112.065C113.354 333.479 114.255 332.754 114.248 331.663C114.255 330.601 113.479 329.898 112.27 329.891C111.135 329.898 110.102 330.521 110.043 331.561H108.769C108.835 329.876 110.402 328.748 112.285 328.748C114.306 328.748 115.537 330.074 115.522 331.59C115.537 332.798 114.833 333.677 113.72 333.992V334.065C115.104 334.278 115.939 335.267 115.932 336.614C115.939 338.357 114.357 339.646 112.241 339.646ZM121.586 328.895V339.5H120.253V330.271H120.195L117.617 331.985V330.652L120.253 328.895H121.586Z" fill="#C4C5D4"/>
</g>
<defs>
<filter id="filter0_dd_3705_24759" x="0" y="0" width="420" height="401" filterUnits="userSpaceOnUse" color-interpolation-filters="sRGB">
<feFlood flood-opacity="0" result="BackgroundImageFix"/>
<feColorMatrix in="SourceAlpha" type="matrix" values="0 0 0 0 0 0 0 0 0 0 0 0 0 0 0 0 0 0 127 0" result="hardAlpha"/>
<feOffset dx="1" dy="12"/>
<feGaussianBlur stdDeviation="11"/>
<feComposite in2="hardAlpha" operator="out"/>
<feColorMatrix type="matrix" values="0 0 0 0 0.282353 0 0 0 0 0.352941 0 0 0 0 0.47451 0 0 0 0.18 0"/>
<feBlend mode="normal" in2="BackgroundImageFix" result="effect1_dropShadow_3705_24759"/>
<feColorMatrix in="SourceAlpha" type="matrix" values="0 0 0 0 0 0 0 0 0 0 0 0 0 0 0 0 0 0 127 0" result="hardAlpha"/>
<feOffset dy="3"/>
<feGaussianBlur stdDeviation="11"/>
<feComposite in2="hardAlpha" operator="out"/>
<feColorMatrix type="matrix" values="0 0 0 0 0.282353 0 0 0 0 0.352941 0 0 0 0 0.47451 0 0 0 0.15 0"/>
<feBlend mode="normal" in2="effect1_dropShadow_3705_24759" result="effect2_dropShadow_3705_24759"/>
<feBlend mode="normal" in="SourceGraphic" in2="effect2_dropShadow_3705_24759" result="shape"/>
</filter>
</defs>
</svg>
