<svg width="1195" height="339" viewBox="0 0 1195 339" fill="none" xmlns="http://www.w3.org/2000/svg">
<path d="M105.975 110.66H149.344V170.523H105.847H104.847V171.523V331.315H37.2208V171.349V170.349H36.2208H1V110.486H36.2208H37.2208V109.486V98.3922C37.2208 74.8573 45.398 55.5474 59.1105 42.1214C72.8261 28.6924 92.147 21.0843 114.55 21.0843H114.564L114.577 21.0839C130.117 20.66 145.532 23.976 159.576 30.7588L147.006 78.0367C141.634 74.631 135.388 72.8988 129.041 73.0734C122.009 73.0766 115.971 75.4774 111.692 79.9158C107.411 84.3549 104.975 90.7437 104.975 98.5664V109.66V110.66H105.975ZM184.195 331.315V110.312H252.034V331.315H184.195Z" stroke="#141414" stroke-width="2"/>
<path d="M618.503 331.534V203.601C618.503 189.81 614.947 180.255 608.445 174.165C601.955 168.086 592.712 165.632 581.716 165.632L581.709 165.632C573.275 165.69 564.967 167.72 557.426 171.565C549.884 175.41 543.309 180.966 538.208 187.806L538.009 188.072V188.404V331.62H470.312V110.417H538.095V136.675V139.428L539.862 137.317C552.844 121.802 578.409 104.887 614.813 104.887C639.531 104.887 657.392 112.213 669.078 124.497C680.774 136.79 686.414 154.182 686.414 174.557V331.618L618.503 331.534Z" stroke="#141414" stroke-width="2"/>
<path d="M945.523 228.126V242.362H790.682H789.468L789.701 243.554C793.856 264.869 813.341 284.107 846.187 284.107C865.417 284.107 886.889 276.559 899.451 265.677L928.173 308.368C906.625 327.6 871.039 337.087 837.947 337.087C804.417 337.087 774.786 325.964 753.546 305.871C732.313 285.785 719.398 256.672 719.398 220.552L719.398 220.548C719.186 156.608 766.751 104.887 834.616 104.887C866.74 104.887 894.444 116.907 914.122 138.279C933.806 159.657 945.523 190.462 945.523 228.126ZM788.757 197.008L788.56 198.175H789.743H879.917H881.037L880.91 197.062C879.995 189.041 876.641 179.238 869.383 171.426C862.1 163.586 850.952 157.824 834.616 157.824C819.165 157.824 808.364 163.486 801.09 171.26C793.842 179.007 790.147 188.792 788.757 197.008Z" stroke="#141414" stroke-width="2"/>
<path d="M1194 228.126V242.362H1039.28H1038.06L1038.29 243.554C1042.45 264.87 1061.92 284.107 1094.95 284.107C1114.17 284.107 1135.62 276.562 1148.17 265.682L1176.5 308.365C1154.97 327.599 1119.4 337.087 1086.33 337.087C1052.83 337.087 1023.22 325.964 1002 305.871C980.781 285.785 967.875 256.672 967.875 220.552L967.875 220.549C967.706 156.608 1015.24 104.887 1083.18 104.887C1115.28 104.887 1142.96 116.906 1162.62 138.279C1182.29 159.657 1194 190.462 1194 228.126ZM1128.44 198.175H1129.56L1129.44 197.062C1128.52 189.042 1125.18 179.239 1117.94 171.426C1110.66 163.586 1099.52 157.824 1083.18 157.824C1067.67 157.824 1056.85 163.485 1049.56 171.259C1042.3 179.006 1038.61 188.792 1037.22 197.008L1037.03 198.175H1038.21H1038.34H1128.44Z" stroke="#141414" stroke-width="2"/>
<path d="M387.721 170.375H386.721V171.375V252.643C386.721 259.282 388.584 265.179 392.102 269.437C395.637 273.713 400.787 276.265 407.179 276.265C411.132 276.265 415.088 275.55 418.355 274.481C420.716 273.708 422.814 272.719 424.285 271.615L437.216 323.016C428.757 330.881 411.76 337.087 386.696 337.087C364.71 337.087 347.926 331.473 336.641 320.686C325.363 309.905 319.423 293.812 319.423 272.525V171.418V170.418H318.423H283.195V110.553H318.423H319.423V109.553V55.0078L386.721 49.6843V109.51V110.51H387.721H431.099V170.375H387.721Z" stroke="#141414" stroke-width="2"/>
<path d="M218.399 1.00057V1.00064L218.41 1.00057C223.508 0.972431 228.562 1.97871 233.278 3.96189C237.995 5.94509 242.282 8.86606 245.89 12.557C249.498 16.2479 252.357 20.6354 254.298 25.4662C256.239 30.297 257.225 35.4745 257.197 40.6987L257.197 40.7093C257.225 45.9335 256.239 51.111 254.298 55.9418C252.357 60.7726 249.498 65.1601 245.89 68.851C242.282 72.5419 237.995 75.4632 233.278 77.4464C228.562 79.4295 223.508 80.4358 218.41 80.4076L218.399 80.4077C213.301 80.4358 208.248 79.4295 203.531 77.4464C198.815 75.4632 194.528 72.5419 190.92 68.851C187.311 65.1601 184.453 60.7726 182.512 55.9418C180.571 51.111 179.585 45.9335 179.613 40.7093L179.613 40.6987C179.585 35.4745 180.571 30.297 182.512 25.4662C184.453 20.6354 187.311 16.2479 190.92 12.557C194.528 8.86606 198.815 5.94509 203.531 3.96189C208.248 1.97871 213.301 0.972431 218.399 1.00057Z" stroke="#141414" stroke-width="2"/>
</svg>
