<svg width="88" height="28" viewBox="0 0 88 28" fill="none" xmlns="http://www.w3.org/2000/svg">

<path d="M5.32081 22.0596H1.82392V14.2102H0.00476074V11.1934H1.82392V10.6525C1.82392 8.33369 3.48451 6.83381 5.75792 6.83381C6.56022 6.81256 7.35598 6.98207 8.07847 7.32812L7.41851 9.7381C7.14449 9.55259 6.81827 9.45755 6.48644 9.46656C5.80292 9.46656 5.32724 9.91843 5.32724 10.6609V11.2019H7.55565V14.2186H5.32081V22.0596ZM9.20553 22.0596V11.1849H12.7131V22.0596H9.20553Z" fill="currentColor"/>
<path d="M31.0096 22.0598V15.7781C31.0096 14.4501 30.3047 13.977 29.2141 13.977C28.7987 13.9797 28.3896 14.0768 28.0181 14.2607C27.6467 14.4446 27.3228 14.7104 27.0714 15.0377V22.064H23.5745V11.1894H27.0756V12.5174C27.7356 11.7515 29.0319 10.9199 30.8747 10.9199C33.3752 10.9199 34.5172 12.3604 34.5172 14.3631V22.064L31.0096 22.0598Z" fill="currentColor"/>
<path d="M41.9139 10.9155C45.1644 10.9155 47.5299 13.2789 47.5299 16.9702V17.7127H39.7091C39.9126 18.7268 40.8683 19.6496 42.4946 19.6496C43.4716 19.6496 44.5644 19.2677 45.1772 18.7268L46.675 20.8885C45.5843 21.8559 43.7652 22.329 42.081 22.329C38.6934 22.329 36.0815 20.146 36.0815 16.6011C36.0707 13.4592 38.4791 10.9155 41.9139 10.9155ZM39.6619 15.4618H44.1873C44.0973 14.696 43.5274 13.5928 41.9139 13.5928C40.3904 13.5928 39.799 14.6748 39.6619 15.4618Z" fill="currentColor"/>
<path d="M54.3888 10.9155C57.6392 10.9155 60.0048 13.2789 60.0048 16.9702V17.7127H52.1839C52.3875 18.7268 53.3431 19.6496 54.9801 19.6496C55.9572 19.6496 57.05 19.2677 57.6628 18.7268L59.1413 20.8885C58.0506 21.8559 56.2315 22.329 54.5473 22.329C51.1597 22.329 48.5478 20.146 48.5478 16.6011C48.5392 13.4592 50.9476 10.9155 54.3888 10.9155ZM52.1368 15.4618H56.6622C56.5722 14.696 56.0044 13.5928 54.3888 13.5928C52.8589 13.5928 52.2675 14.6748 52.1303 15.4618H52.1368Z" fill="currentColor"/>
<path d="M21.3397 18.9983C21.2261 19.1319 20.8383 19.2677 20.4526 19.2677C19.8398 19.2677 19.4755 18.7946 19.4755 18.1645V14.2016H21.704V11.1849H19.4755V8.21484L15.9958 8.48215V11.187H14.1766V14.2037H15.9958V19.134C15.9958 21.2279 17.2 22.3311 19.4241 22.3311C20.7097 22.3311 21.5861 22.0171 22.0168 21.6119L21.3397 18.9983Z" fill="currentColor"/>
<path d="M8.96341 7.82913C8.96199 7.56853 9.01278 7.31024 9.11285 7.0692C9.21292 6.82816 9.36028 6.60917 9.5464 6.4249C9.73252 6.24062 9.95371 6.09473 10.1972 5.99565C10.4406 5.89657 10.7015 5.84628 10.9647 5.84768C11.2279 5.84628 11.4888 5.89657 11.7322 5.99565C11.9757 6.09473 12.1969 6.24062 12.383 6.4249C12.5691 6.60917 12.7165 6.82816 12.8165 7.0692C12.9166 7.31024 12.9674 7.56853 12.966 7.82913C12.9674 8.08973 12.9166 8.34802 12.8165 8.58906C12.7165 8.83009 12.5691 9.04908 12.383 9.23336C12.1969 9.41763 11.9757 9.56354 11.7322 9.66262C11.4888 9.7617 11.2279 9.81199 10.9647 9.81059C10.7015 9.81199 10.4406 9.7617 10.1972 9.66262C9.95371 9.56354 9.73252 9.41763 9.5464 9.23336C9.36028 9.04908 9.21292 8.83009 9.11285 8.58906C9.01278 8.34802 8.96199 8.08973 8.96341 7.82913Z" fill="#8457F1"/>
</svg>
