<svg width="28" height="28" viewBox="0 0 28 28" fill="none" xmlns="http://www.w3.org/2000/svg">
<path fill-rule="evenodd" clip-rule="evenodd" d="M8.16667 3.5C5.58934 3.5 3.5 5.58934 3.5 8.16667V19.8333C3.5 22.4107 5.58934 24.5 8.16667 24.5H19.8333C22.4107 24.5 24.5 22.4107 24.5 19.8333V8.16667C24.5 5.58934 22.4107 3.5 19.8333 3.5H8.16667ZM20.7191 11.2593C21.1385 10.7701 21.0818 10.0335 20.5926 9.61422C20.1034 9.1949 19.3669 9.25155 18.9475 9.74077L12.7674 16.9509L8.99163 13.1751C8.53601 12.7195 7.79732 12.7195 7.34171 13.1751C6.8861 13.6307 6.8861 14.3694 7.34171 14.825L12.0084 19.4916C12.2382 19.7214 12.5534 19.845 12.8781 19.8325C13.2028 19.82 13.5076 19.6727 13.7191 19.4259L20.7191 11.2593Z" fill="#C4C5D4"/>
</svg>
